<svg xmlns="http://www.w3.org/2000/svg" width="1100" height="640" viewBox="0 0 1100 640" role="img" aria-labelledby="title desc">
  <title id="title">M&#252;&#252;gitulu ja brutokasum kategooriate l&#245;ikes</title>
  <desc id="desc">Grupeeritud tulpdiagramm, mis v&#245;rdleb UrbanStyle kategooriate m&#252;&#252;gitulu ja brutokasumit eurodes.</desc>
  <rect width="1100" height="640" fill="#ffffff"/>

  <text x="70" y="48" font-family="Arial, sans-serif" font-size="28" font-weight="700" fill="#202124">M&#252;&#252;gitulu ja brutokasum kategooriate l&#245;ikes</text>
  <text x="70" y="76" font-family="Arial, sans-serif" font-size="15" fill="#5f6368">UrbanStyle inventuuristatistika tabeli p&#245;hjal</text>

  <rect x="70" y="104" width="18" height="18" fill="#2f80ed"/>
  <text x="98" y="118" font-family="Arial, sans-serif" font-size="14" fill="#3c4043">M&#252;&#252;gitulu (&#8364;)</text>
  <rect x="245" y="104" width="18" height="18" fill="#27ae60"/>
  <text x="273" y="118" font-family="Arial, sans-serif" font-size="14" fill="#3c4043">Brutokasum (&#8364;)</text>

  <line x1="120" y1="540" x2="970" y2="540" stroke="#9aa0a6" stroke-width="1.5"/>
  <line x1="120" y1="140" x2="120" y2="540" stroke="#9aa0a6" stroke-width="1.5"/>
  <line x1="120" y1="440" x2="970" y2="440" stroke="#e8eaed"/>
  <line x1="120" y1="340" x2="970" y2="340" stroke="#e8eaed"/>
  <line x1="120" y1="240" x2="970" y2="240" stroke="#e8eaed"/>
  <line x1="120" y1="140" x2="970" y2="140" stroke="#e8eaed"/>

  <text x="78" y="544" font-family="Arial, sans-serif" font-size="12" fill="#5f6368">0</text>
  <text x="50" y="444" font-family="Arial, sans-serif" font-size="12" fill="#5f6368">200k</text>
  <text x="50" y="344" font-family="Arial, sans-serif" font-size="12" fill="#5f6368">400k</text>
  <text x="50" y="244" font-family="Arial, sans-serif" font-size="12" fill="#5f6368">600k</text>
  <text x="50" y="144" font-family="Arial, sans-serif" font-size="12" fill="#5f6368">800k</text>

  <rect x="148" y="153.0" width="50" height="387.0" fill="#2f80ed"/>
  <rect x="203" y="401.8" width="50" height="138.2" fill="#27ae60"/>
  <text x="173" y="144" text-anchor="middle" font-family="Arial, sans-serif" font-size="12" font-weight="700" fill="#202124">774k</text>
  <text x="228" y="393" text-anchor="middle" font-family="Arial, sans-serif" font-size="12" font-weight="700" fill="#202124">276k</text>

  <rect x="318" y="166.0" width="50" height="374.0" fill="#2f80ed"/>
  <rect x="373" y="402.2" width="50" height="137.8" fill="#27ae60"/>
  <text x="343" y="157" text-anchor="middle" font-family="Arial, sans-serif" font-size="12" font-weight="700" fill="#202124">748k</text>
  <text x="398" y="393" text-anchor="middle" font-family="Arial, sans-serif" font-size="12" font-weight="700" fill="#202124">276k</text>

  <rect x="488" y="196.8" width="50" height="343.2" fill="#2f80ed"/>
  <rect x="543" y="422.1" width="50" height="117.9" fill="#27ae60"/>
  <text x="513" y="188" text-anchor="middle" font-family="Arial, sans-serif" font-size="12" font-weight="700" fill="#202124">686k</text>
  <text x="568" y="413" text-anchor="middle" font-family="Arial, sans-serif" font-size="12" font-weight="700" fill="#202124">236k</text>

  <rect x="658" y="343.5" width="50" height="196.5" fill="#2f80ed"/>
  <rect x="713" y="467.2" width="50" height="72.8" fill="#27ae60"/>
  <text x="683" y="335" text-anchor="middle" font-family="Arial, sans-serif" font-size="12" font-weight="700" fill="#202124">393k</text>
  <text x="738" y="458" text-anchor="middle" font-family="Arial, sans-serif" font-size="12" font-weight="700" fill="#202124">146k</text>

  <rect x="828" y="387.3" width="50" height="152.7" fill="#2f80ed"/>
  <rect x="883" y="486.8" width="50" height="53.2" fill="#27ae60"/>
  <text x="853" y="378" text-anchor="middle" font-family="Arial, sans-serif" font-size="12" font-weight="700" fill="#202124">305k</text>
  <text x="908" y="478" text-anchor="middle" font-family="Arial, sans-serif" font-size="12" font-weight="700" fill="#202124">106k</text>

  <text x="188" y="590" text-anchor="middle" font-family="Arial, sans-serif" font-size="14" fill="#3c4043">jalan&#245;ud</text>
  <text x="358" y="590" text-anchor="middle" font-family="Arial, sans-serif" font-size="14" fill="#3c4043">meeste riided</text>
  <text x="528" y="590" text-anchor="middle" font-family="Arial, sans-serif" font-size="14" fill="#3c4043">naiste riided</text>
  <text x="698" y="590" text-anchor="middle" font-family="Arial, sans-serif" font-size="14" fill="#3c4043">aksessuaarid</text>
  <text x="868" y="590" text-anchor="middle" font-family="Arial, sans-serif" font-size="14" fill="#3c4043">laste riided</text>

  <text x="70" y="626" font-family="Arial, sans-serif" font-size="12" fill="#5f6368">Joonis n&#228;itab, et suurimad kasumikeskused on jalan&#245;ud ja meeste riided.</text>
</svg>
